<mxfile host="app.diagrams.net" modified="2020-11-11T01:50:36.732Z" agent="5.0 (X11; Linux x86_64) AppleWebKit/537.36 (KHTML, like Gecko) Chrome/86.0.4240.183 Safari/537.36 OPR/72.0.3815.207" etag="PR3XOijwFqivTiRa4NS_" version="13.9.3" type="github">
  <diagram name="Page-1" id="c4acf3e9-155e-7222-9cf6-157b1a14988f">
    <mxGraphModel dx="2653" dy="543" grid="1" gridSize="10" guides="1" tooltips="1" connect="1" arrows="1" fold="1" page="1" pageScale="1" pageWidth="850" pageHeight="1100" background="#ffffff" math="0" shadow="0">
      <root>
        <mxCell id="0" />
        <mxCell id="1" parent="0" />
        <mxCell id="5d2195bd80daf111-18" value="&lt;p style=&quot;margin:0px;margin-top:4px;text-align:center;&quot;&gt;&lt;i&gt;&amp;lt;&amp;lt;Interface&amp;gt;&amp;gt;&lt;/i&gt;&lt;br/&gt;&lt;b&gt;Interface&lt;/b&gt;&lt;/p&gt;&lt;hr size=&quot;1&quot;/&gt;&lt;p style=&quot;margin:0px;margin-left:4px;&quot;&gt;+ field1: Type&lt;br/&gt;+ field2: Type&lt;/p&gt;&lt;hr size=&quot;1&quot;/&gt;&lt;p style=&quot;margin:0px;margin-left:4px;&quot;&gt;+ method1(Type): Type&lt;br/&gt;+ method2(Type, Type): Type&lt;/p&gt;" style="verticalAlign=top;align=left;overflow=fill;fontSize=12;fontFamily=Helvetica;html=1;rounded=0;shadow=0;comic=0;labelBackgroundColor=none;strokeWidth=1" parent="1" vertex="1">
          <mxGeometry x="260" y="10" width="190" height="140" as="geometry" />
        </mxCell>
        <mxCell id="VCcq0XsR7xSi-hLQ08Bg-1" value="FileCreator" style="swimlane;fontStyle=1;align=center;verticalAlign=top;childLayout=stackLayout;horizontal=1;startSize=26;horizontalStack=0;resizeParent=1;resizeParentMax=0;resizeLast=0;collapsible=1;marginBottom=0;" vertex="1" parent="1">
          <mxGeometry x="-30" y="350" width="150" height="52" as="geometry" />
        </mxCell>
        <mxCell id="VCcq0XsR7xSi-hLQ08Bg-4" value="+ CreateFile();" style="text;strokeColor=none;fillColor=none;align=left;verticalAlign=top;spacingLeft=4;spacingRight=4;overflow=hidden;rotatable=0;points=[[0,0.5],[1,0.5]];portConstraint=eastwest;" vertex="1" parent="VCcq0XsR7xSi-hLQ08Bg-1">
          <mxGeometry y="26" width="150" height="26" as="geometry" />
        </mxCell>
        <mxCell id="VCcq0XsR7xSi-hLQ08Bg-8" value="create&lt;br&gt;new&lt;br&gt;file" style="edgeStyle=orthogonalEdgeStyle;rounded=0;orthogonalLoop=1;jettySize=auto;html=1;exitX=0.25;exitY=0;exitDx=0;exitDy=0;exitPerimeter=0;" edge="1" parent="1" source="VCcq0XsR7xSi-hLQ08Bg-5">
          <mxGeometry relative="1" as="geometry">
            <mxPoint x="104.5882352941178" y="400" as="targetPoint" />
          </mxGeometry>
        </mxCell>
        <mxCell id="VCcq0XsR7xSi-hLQ08Bg-25" style="edgeStyle=orthogonalEdgeStyle;rounded=0;orthogonalLoop=1;jettySize=auto;html=1;exitX=0.5;exitY=0;exitDx=0;exitDy=0;exitPerimeter=0;entryX=1;entryY=0.5;entryDx=0;entryDy=0;" edge="1" parent="1" source="VCcq0XsR7xSi-hLQ08Bg-5" target="VCcq0XsR7xSi-hLQ08Bg-17">
          <mxGeometry relative="1" as="geometry">
            <Array as="points">
              <mxPoint x="130" y="400" />
              <mxPoint x="240" y="400" />
              <mxPoint x="240" y="177" />
            </Array>
          </mxGeometry>
        </mxCell>
        <mxCell id="VCcq0XsR7xSi-hLQ08Bg-5" value="stdin" style="strokeWidth=2;html=1;shape=mxgraph.flowchart.document2;whiteSpace=wrap;size=0.25;" vertex="1" parent="1">
          <mxGeometry x="80" y="480" width="100" height="60" as="geometry" />
        </mxCell>
        <mxCell id="VCcq0XsR7xSi-hLQ08Bg-6" value="file.txt" style="strokeWidth=2;html=1;shape=mxgraph.flowchart.document2;whiteSpace=wrap;size=0.25;" vertex="1" parent="1">
          <mxGeometry x="220" y="480" width="100" height="60" as="geometry" />
        </mxCell>
        <mxCell id="VCcq0XsR7xSi-hLQ08Bg-7" value="вызывает FileController.newFile() и TextEditor.run();" style="text;html=1;strokeColor=none;fillColor=none;align=center;verticalAlign=middle;whiteSpace=wrap;rounded=0;" vertex="1" parent="1">
          <mxGeometry x="-210" y="382" width="190" height="20" as="geometry" />
        </mxCell>
        <mxCell id="VCcq0XsR7xSi-hLQ08Bg-11" value="vion create file.txt" style="edgeStyle=orthogonalEdgeStyle;rounded=0;orthogonalLoop=1;jettySize=auto;html=1;exitX=0.75;exitY=0;exitDx=0;exitDy=0;exitPerimeter=0;" edge="1" parent="1" source="VCcq0XsR7xSi-hLQ08Bg-10">
          <mxGeometry relative="1" as="geometry">
            <mxPoint x="25" y="400" as="targetPoint" />
          </mxGeometry>
        </mxCell>
        <mxCell id="VCcq0XsR7xSi-hLQ08Bg-10" value="args" style="strokeWidth=2;html=1;shape=mxgraph.flowchart.document2;whiteSpace=wrap;size=0.25;" vertex="1" parent="1">
          <mxGeometry x="-50" y="480" width="100" height="60" as="geometry" />
        </mxCell>
        <mxCell id="VCcq0XsR7xSi-hLQ08Bg-12" value="TextEditor" style="swimlane;fontStyle=1;align=center;verticalAlign=top;childLayout=stackLayout;horizontal=1;startSize=26;horizontalStack=0;resizeParent=1;resizeParentMax=0;resizeLast=0;collapsible=1;marginBottom=0;" vertex="1" parent="1">
          <mxGeometry x="-160" width="380" height="346" as="geometry" />
        </mxCell>
        <mxCell id="VCcq0XsR7xSi-hLQ08Bg-13" value="- file : FileController" style="text;strokeColor=none;fillColor=none;align=left;verticalAlign=top;spacingLeft=4;spacingRight=4;overflow=hidden;rotatable=0;points=[[0,0.5],[1,0.5]];portConstraint=eastwest;" vertex="1" parent="VCcq0XsR7xSi-hLQ08Bg-12">
          <mxGeometry y="26" width="380" height="26" as="geometry" />
        </mxCell>
        <mxCell id="VCcq0XsR7xSi-hLQ08Bg-20" value="- mode : enum Mode;" style="text;strokeColor=none;fillColor=none;align=left;verticalAlign=top;spacingLeft=4;spacingRight=4;overflow=hidden;rotatable=0;points=[[0,0.5],[1,0.5]];portConstraint=eastwest;" vertex="1" parent="VCcq0XsR7xSi-hLQ08Bg-12">
          <mxGeometry y="52" width="380" height="26" as="geometry" />
        </mxCell>
        <mxCell id="VCcq0XsR7xSi-hLQ08Bg-49" value="- interpret : Interpretator;" style="text;strokeColor=none;fillColor=none;align=left;verticalAlign=top;spacingLeft=4;spacingRight=4;overflow=hidden;rotatable=0;points=[[0,0.5],[1,0.5]];portConstraint=eastwest;" vertex="1" parent="VCcq0XsR7xSi-hLQ08Bg-12">
          <mxGeometry y="78" width="380" height="26" as="geometry" />
        </mxCell>
        <mxCell id="VCcq0XsR7xSi-hLQ08Bg-14" value="" style="line;strokeWidth=1;fillColor=none;align=left;verticalAlign=middle;spacingTop=-1;spacingLeft=3;spacingRight=3;rotatable=0;labelPosition=right;points=[];portConstraint=eastwest;" vertex="1" parent="VCcq0XsR7xSi-hLQ08Bg-12">
          <mxGeometry y="104" width="380" height="8" as="geometry" />
        </mxCell>
        <mxCell id="VCcq0XsR7xSi-hLQ08Bg-15" value="+ run();" style="text;strokeColor=none;fillColor=none;align=left;verticalAlign=top;spacingLeft=4;spacingRight=4;overflow=hidden;rotatable=0;points=[[0,0.5],[1,0.5]];portConstraint=eastwest;" vertex="1" parent="VCcq0XsR7xSi-hLQ08Bg-12">
          <mxGeometry y="112" width="380" height="26" as="geometry" />
        </mxCell>
        <mxCell id="VCcq0XsR7xSi-hLQ08Bg-23" value="+ update(); // вызывает функцию FileController&#39;а &quot;получить файл&quot;" style="text;strokeColor=none;fillColor=none;align=left;verticalAlign=top;spacingLeft=4;spacingRight=4;overflow=hidden;rotatable=0;points=[[0,0.5],[1,0.5]];portConstraint=eastwest;" vertex="1" parent="VCcq0XsR7xSi-hLQ08Bg-12">
          <mxGeometry y="138" width="380" height="26" as="geometry" />
        </mxCell>
        <mxCell id="VCcq0XsR7xSi-hLQ08Bg-50" style="edgeStyle=orthogonalEdgeStyle;rounded=0;orthogonalLoop=1;jettySize=auto;html=1;exitX=0;exitY=0.5;exitDx=0;exitDy=0;entryX=0;entryY=0.5;entryDx=0;entryDy=0;dashed=1;dashPattern=1 1;endArrow=blockThin;endFill=0;" edge="1" parent="VCcq0XsR7xSi-hLQ08Bg-12" source="VCcq0XsR7xSi-hLQ08Bg-17" target="VCcq0XsR7xSi-hLQ08Bg-49">
          <mxGeometry relative="1" as="geometry" />
        </mxCell>
        <mxCell id="VCcq0XsR7xSi-hLQ08Bg-17" value="- listen(fd : int);" style="text;strokeColor=none;fillColor=none;align=left;verticalAlign=top;spacingLeft=4;spacingRight=4;overflow=hidden;rotatable=0;points=[[0,0.5],[1,0.5]];portConstraint=eastwest;" vertex="1" parent="VCcq0XsR7xSi-hLQ08Bg-12">
          <mxGeometry y="164" width="380" height="26" as="geometry" />
        </mxCell>
        <mxCell id="VCcq0XsR7xSi-hLQ08Bg-19" value="- performCommand(cmd : Command) : Change;" style="text;strokeColor=none;fillColor=none;align=left;verticalAlign=top;spacingLeft=4;spacingRight=4;overflow=hidden;rotatable=0;points=[[0,0.5],[1,0.5]];portConstraint=eastwest;" vertex="1" parent="VCcq0XsR7xSi-hLQ08Bg-12">
          <mxGeometry y="190" width="380" height="26" as="geometry" />
        </mxCell>
        <mxCell id="VCcq0XsR7xSi-hLQ08Bg-37" value="- sendChange(change : Change); // отправка изменений в FileContr" style="text;strokeColor=none;fillColor=none;align=left;verticalAlign=top;spacingLeft=4;spacingRight=4;overflow=hidden;rotatable=0;points=[[0,0.5],[1,0.5]];portConstraint=eastwest;" vertex="1" parent="VCcq0XsR7xSi-hLQ08Bg-12">
          <mxGeometry y="216" width="380" height="26" as="geometry" />
        </mxCell>
        <mxCell id="VCcq0XsR7xSi-hLQ08Bg-21" value="- changeMode();" style="text;strokeColor=none;fillColor=none;align=left;verticalAlign=top;spacingLeft=4;spacingRight=4;overflow=hidden;rotatable=0;points=[[0,0.5],[1,0.5]];portConstraint=eastwest;" vertex="1" parent="VCcq0XsR7xSi-hLQ08Bg-12">
          <mxGeometry y="242" width="380" height="26" as="geometry" />
        </mxCell>
        <mxCell id="VCcq0XsR7xSi-hLQ08Bg-18" value="- show(fd : int);" style="text;strokeColor=none;fillColor=none;align=left;verticalAlign=top;spacingLeft=4;spacingRight=4;overflow=hidden;rotatable=0;points=[[0,0.5],[1,0.5]];portConstraint=eastwest;" vertex="1" parent="VCcq0XsR7xSi-hLQ08Bg-12">
          <mxGeometry y="268" width="380" height="26" as="geometry" />
        </mxCell>
        <mxCell id="VCcq0XsR7xSi-hLQ08Bg-16" value="- move_cursor(direction : int);" style="text;strokeColor=none;fillColor=none;align=left;verticalAlign=top;spacingLeft=4;spacingRight=4;overflow=hidden;rotatable=0;points=[[0,0.5],[1,0.5]];portConstraint=eastwest;" vertex="1" parent="VCcq0XsR7xSi-hLQ08Bg-12">
          <mxGeometry y="294" width="380" height="26" as="geometry" />
        </mxCell>
        <mxCell id="VCcq0XsR7xSi-hLQ08Bg-22" value="- editText();" style="text;strokeColor=none;fillColor=none;align=left;verticalAlign=top;spacingLeft=4;spacingRight=4;overflow=hidden;rotatable=0;points=[[0,0.5],[1,0.5]];portConstraint=eastwest;" vertex="1" parent="VCcq0XsR7xSi-hLQ08Bg-12">
          <mxGeometry y="320" width="380" height="26" as="geometry" />
        </mxCell>
        <mxCell id="VCcq0XsR7xSi-hLQ08Bg-34" style="edgeStyle=orthogonalEdgeStyle;rounded=0;orthogonalLoop=1;jettySize=auto;html=1;exitX=0.5;exitY=0;exitDx=0;exitDy=0;entryX=0.5;entryY=1;entryDx=0;entryDy=0;endArrow=blockThin;endFill=0;" edge="1" parent="1" source="VCcq0XsR7xSi-hLQ08Bg-27" target="VCcq0XsR7xSi-hLQ08Bg-33">
          <mxGeometry relative="1" as="geometry" />
        </mxCell>
        <mxCell id="VCcq0XsR7xSi-hLQ08Bg-27" value="DeleteString" style="swimlane;fontStyle=1;align=center;verticalAlign=top;childLayout=stackLayout;horizontal=1;startSize=26;horizontalStack=0;resizeParent=1;resizeParentMax=0;resizeLast=0;collapsible=1;marginBottom=0;" vertex="1" parent="1">
          <mxGeometry x="-490" y="316" width="230" height="52" as="geometry" />
        </mxCell>
        <mxCell id="VCcq0XsR7xSi-hLQ08Bg-30" value="+ createChange(str_id : size_t) : Change;" style="text;strokeColor=none;fillColor=none;align=left;verticalAlign=top;spacingLeft=4;spacingRight=4;overflow=hidden;rotatable=0;points=[[0,0.5],[1,0.5]];portConstraint=eastwest;" vertex="1" parent="VCcq0XsR7xSi-hLQ08Bg-27">
          <mxGeometry y="26" width="230" height="26" as="geometry" />
        </mxCell>
        <mxCell id="VCcq0XsR7xSi-hLQ08Bg-35" style="edgeStyle=orthogonalEdgeStyle;rounded=0;orthogonalLoop=1;jettySize=auto;html=1;exitX=0.5;exitY=0;exitDx=0;exitDy=0;endArrow=blockThin;endFill=0;" edge="1" parent="1" source="VCcq0XsR7xSi-hLQ08Bg-31" target="VCcq0XsR7xSi-hLQ08Bg-33">
          <mxGeometry relative="1" as="geometry" />
        </mxCell>
        <mxCell id="VCcq0XsR7xSi-hLQ08Bg-31" value="DeleteWord" style="swimlane;fontStyle=1;align=center;verticalAlign=top;childLayout=stackLayout;horizontal=1;startSize=26;horizontalStack=0;resizeParent=1;resizeParentMax=0;resizeLast=0;collapsible=1;marginBottom=0;" vertex="1" parent="1">
          <mxGeometry x="-860" y="316" width="330" height="52" as="geometry" />
        </mxCell>
        <mxCell id="VCcq0XsR7xSi-hLQ08Bg-32" value="+ createChange(str_id : size_t, begin_id : size_t) : Change;" style="text;strokeColor=none;fillColor=none;align=left;verticalAlign=top;spacingLeft=4;spacingRight=4;overflow=hidden;rotatable=0;points=[[0,0.5],[1,0.5]];portConstraint=eastwest;" vertex="1" parent="VCcq0XsR7xSi-hLQ08Bg-31">
          <mxGeometry y="26" width="330" height="26" as="geometry" />
        </mxCell>
        <mxCell id="VCcq0XsR7xSi-hLQ08Bg-33" value="&lt;p style=&quot;margin: 0px ; margin-top: 4px ; text-align: center&quot;&gt;&lt;i&gt;&amp;lt;&amp;lt;Interface&amp;gt;&amp;gt;&lt;/i&gt;&lt;br&gt;&lt;b&gt;Command&lt;/b&gt;&lt;/p&gt;&lt;br&gt;&lt;hr size=&quot;1&quot;&gt;&lt;p style=&quot;margin: 0px ; margin-left: 4px&quot;&gt;+ createChange() : Change;&lt;/p&gt;" style="verticalAlign=top;align=left;overflow=fill;fontSize=12;fontFamily=Helvetica;html=1;rounded=0;shadow=0;comic=0;labelBackgroundColor=none;strokeWidth=1" vertex="1" parent="1">
          <mxGeometry x="-610" y="180" width="200" height="90" as="geometry" />
        </mxCell>
        <mxCell id="VCcq0XsR7xSi-hLQ08Bg-36" value="" style="shape=image;html=1;verticalAlign=top;verticalLabelPosition=bottom;labelBackgroundColor=#ffffff;imageAspect=0;aspect=fixed;image=https://cdn4.iconfinder.com/data/icons/essential-app-1/16/dot-more-menu-hide-128.png" vertex="1" parent="1">
          <mxGeometry x="-525" y="326" width="30" height="30" as="geometry" />
        </mxCell>
        <mxCell id="VCcq0XsR7xSi-hLQ08Bg-39" value="Interpretator" style="swimlane;fontStyle=1;align=center;verticalAlign=top;childLayout=stackLayout;horizontal=1;startSize=26;horizontalStack=0;resizeParent=1;resizeParentMax=0;resizeLast=0;collapsible=1;marginBottom=0;" vertex="1" parent="1">
          <mxGeometry x="-440" y="60" width="160" height="86" as="geometry" />
        </mxCell>
        <mxCell id="VCcq0XsR7xSi-hLQ08Bg-40" value="- std:string buffer;" style="text;strokeColor=none;fillColor=none;align=left;verticalAlign=top;spacingLeft=4;spacingRight=4;overflow=hidden;rotatable=0;points=[[0,0.5],[1,0.5]];portConstraint=eastwest;" vertex="1" parent="VCcq0XsR7xSi-hLQ08Bg-39">
          <mxGeometry y="26" width="160" height="26" as="geometry" />
        </mxCell>
        <mxCell id="VCcq0XsR7xSi-hLQ08Bg-41" value="" style="line;strokeWidth=1;fillColor=none;align=left;verticalAlign=middle;spacingTop=-1;spacingLeft=3;spacingRight=3;rotatable=0;labelPosition=right;points=[];portConstraint=eastwest;" vertex="1" parent="VCcq0XsR7xSi-hLQ08Bg-39">
          <mxGeometry y="52" width="160" height="8" as="geometry" />
        </mxCell>
        <mxCell id="VCcq0XsR7xSi-hLQ08Bg-42" value="+ interpret(cur_char : char);" style="text;strokeColor=none;fillColor=none;align=left;verticalAlign=top;spacingLeft=4;spacingRight=4;overflow=hidden;rotatable=0;points=[[0,0.5],[1,0.5]];portConstraint=eastwest;" vertex="1" parent="VCcq0XsR7xSi-hLQ08Bg-39">
          <mxGeometry y="60" width="160" height="26" as="geometry" />
        </mxCell>
        <mxCell id="VCcq0XsR7xSi-hLQ08Bg-43" value="Enum &#xa;CommandCombo" style="swimlane;fontStyle=1;childLayout=stackLayout;horizontal=1;startSize=26;fillColor=none;horizontalStack=0;resizeParent=1;resizeParentMax=0;resizeLast=0;collapsible=1;marginBottom=0;" vertex="1" parent="1">
          <mxGeometry x="520" y="10" width="140" height="104" as="geometry" />
        </mxCell>
        <mxCell id="VCcq0XsR7xSi-hLQ08Bg-44" value="+ field: type" style="text;strokeColor=none;fillColor=none;align=left;verticalAlign=top;spacingLeft=4;spacingRight=4;overflow=hidden;rotatable=0;points=[[0,0.5],[1,0.5]];portConstraint=eastwest;" vertex="1" parent="VCcq0XsR7xSi-hLQ08Bg-43">
          <mxGeometry y="26" width="140" height="26" as="geometry" />
        </mxCell>
        <mxCell id="VCcq0XsR7xSi-hLQ08Bg-45" value="+ field: type" style="text;strokeColor=none;fillColor=none;align=left;verticalAlign=top;spacingLeft=4;spacingRight=4;overflow=hidden;rotatable=0;points=[[0,0.5],[1,0.5]];portConstraint=eastwest;" vertex="1" parent="VCcq0XsR7xSi-hLQ08Bg-43">
          <mxGeometry y="52" width="140" height="26" as="geometry" />
        </mxCell>
        <mxCell id="VCcq0XsR7xSi-hLQ08Bg-46" value="+ field: type" style="text;strokeColor=none;fillColor=none;align=left;verticalAlign=top;spacingLeft=4;spacingRight=4;overflow=hidden;rotatable=0;points=[[0,0.5],[1,0.5]];portConstraint=eastwest;" vertex="1" parent="VCcq0XsR7xSi-hLQ08Bg-43">
          <mxGeometry y="78" width="140" height="26" as="geometry" />
        </mxCell>
        <mxCell id="VCcq0XsR7xSi-hLQ08Bg-47" style="edgeStyle=orthogonalEdgeStyle;rounded=0;orthogonalLoop=1;jettySize=auto;html=1;exitX=1;exitY=0.5;exitDx=0;exitDy=0;entryX=0.75;entryY=0;entryDx=0;entryDy=0;endArrow=blockThin;endFill=0;dashed=1;dashPattern=1 1;" edge="1" parent="1" source="VCcq0XsR7xSi-hLQ08Bg-42" target="VCcq0XsR7xSi-hLQ08Bg-27">
          <mxGeometry relative="1" as="geometry" />
        </mxCell>
        <mxCell id="VCcq0XsR7xSi-hLQ08Bg-48" style="edgeStyle=orthogonalEdgeStyle;rounded=0;orthogonalLoop=1;jettySize=auto;html=1;exitX=0;exitY=0.5;exitDx=0;exitDy=0;entryX=0.374;entryY=-0.007;entryDx=0;entryDy=0;entryPerimeter=0;endArrow=blockThin;endFill=0;dashed=1;dashPattern=1 1;" edge="1" parent="1" source="VCcq0XsR7xSi-hLQ08Bg-42" target="VCcq0XsR7xSi-hLQ08Bg-31">
          <mxGeometry relative="1" as="geometry" />
        </mxCell>
      </root>
    </mxGraphModel>
  </diagram>
</mxfile>
